<svg xmlns="http://www.w3.org/2000/svg" version="1.1" xmlns:xlink="http://www.w3.org/1999/xlink" xmlns:svgjs="http://svgjs.dev/svgjs" width="497.6" height="477.86"><svg id="SvgjsSvg1003" data-name="Layer 1" xmlns="http://www.w3.org/2000/svg" viewBox="0 0 497.6 477.86">
  <defs>
    <style>
      .cls-1 {
        fill: #d10000;
      }
    </style>
  </defs>
  <path id="SvgjsPath1002" data-name="Country Favicon" class="cls-1" d="M220.8,477.86C147.07,435.34,74,393.19.31,350.68c5.74-3.35,10.97-6.43,16.23-9.46,30.47-17.58,60.95-35.15,91.42-52.73,18.4-10.61,36.8-21.24,55.22-31.83,1.69-.97,2.95-1.86,2.94-4.18-.09-19.75-.05-39.51-.07-59.26,0-.56-.14-1.12-.29-2.2-1.74.86-3.29,1.52-4.74,2.35-11.97,6.9-23.98,13.73-35.87,20.77-48.48,28.72-111.16,1.72-123.21-53.11-10.01-45.55,19.64-90.84,65.25-99.15,24.62-4.49,47.04,1.14,66.87,16.49,1.98,1.53,3.34,1.65,5.48.4,23.59-13.71,47.23-27.32,70.87-40.94,12.46-7.18,24.95-14.33,37.68-21.64.23.77.5,1.27.51,1.77.04,8.95.14,17.9-.06,26.84-.03,1.26-1.29,2.96-2.46,3.65-12.09,7.15-24.27,14.15-36.44,21.17-30.97,17.87-61.95,35.74-92.93,53.6-3.19,1.84-6.42,3.64-9.81,5.55-4.89-7.24-11.39-11.69-19.83-13.27-11.85-2.21-24.79,4.86-30.09,16.55-4.9,10.82-1.56,24.91,7.64,32.26,10.31,8.23,22.31,8.81,33.7,2.13,19.63-11.5,39.41-22.75,59.12-34.12,18.91-10.91,37.8-21.84,56.71-32.75,1.99-1.15,3.99-2.26,6.66-3.76v127.5c4.26-2.37,7.89-4.34,11.47-6.39,13.79-7.93,27.52-15.95,41.36-23.79,2.45-1.39,3.29-2.98,3.29-5.77-.08-60.89-.06-121.78-.05-182.67,0-1.34,0-2.68,0-4.67,73.65,42.48,146.71,84.62,220.4,127.13-6.07,3.53-11.62,6.78-17.19,9.99-29.78,17.16-59.57,34.29-89.34,51.46-18.91,10.9-37.81,21.82-56.63,32.87-1.21.71-2.46,2.59-2.47,3.93-.15,19.75-.1,39.51-.09,59.26,0,.56.12,1.13.26,2.34,2.79-1.55,5.26-2.92,7.73-4.31,13.86-7.8,27.32-16.44,41.64-23.25,33.64-16,75.21-5.6,98.33,23.73,33.62,42.65,18.71,105.13-30.95,126.92-29.88,13.11-58.51,9.12-84.75-10.44-2.21-1.65-3.67-1.86-6.04-.48-23.67,13.8-47.41,27.48-71.14,41.18-11.36,6.56-22.74,13.08-34.13,19.61-.98.56-2.01,1.02-3.48,1.76,0-10.12-.09-19.83.12-29.53.02-1.05,1.56-2.39,2.71-3.06,18.97-11.03,37.99-21.98,56.99-32.94,26.65-15.37,53.3-30.74,79.96-46.11.6-.34,1.2-.67,1.92-1.07,5.03,7.68,11.95,12.43,21.05,13.4,11.01,1.17,19.87-2.99,26.11-12.04,6.28-9.1,6.94-18.96,1.63-28.66-8.17-14.96-25.39-19.09-40.16-10.42-22.73,13.33-45.63,26.39-68.45,39.56-16.29,9.4-32.57,18.82-48.86,28.22-1.48.85-2.99,1.64-5.17,2.82v-126.88c-1.03.27-1.74.31-2.28.62-17.22,9.89-34.4,19.84-51.65,29.66-2.22,1.26-2.14,3-2.14,5,.01,40.56,0,81.11,0,121.67,0,20.22,0,40.44,0,60.66,0,1.5,0,3,0,5.27ZM165.79,382.93v-64.55c-18.81,10.86-37.08,21.41-55.95,32.3,18.95,10.92,37.1,21.39,55.95,32.26ZM387.74,127.15c-19-10.96-37.27-21.5-55.91-32.25v64.5c18.74-10.81,36.96-21.32,55.91-32.25Z"></path>
</svg><style>@media (prefers-color-scheme: light) { :root { filter: none; } }
@media (prefers-color-scheme: dark) { :root { filter: none; } }
</style></svg>